<svg xmlns="http://www.w3.org/2000/svg" width="80.000000pt" height="80.000000pt" viewBox="0 0 80.000000 80.000000" preserveAspectRatio="xMidYMid meet"><g transform="translate(0.000000,80.000000) scale(0.100000,-0.100000)" fill="#ff7901" stroke="none"><path d="M687 730 c-48 -9 -51 -12 -80 -90 l-24 -65 -139 -6 c-76 -4 -196 -7 -266 -8 -78 -1 -129 -5 -133 -12 -8 -11 14 -241 24 -257 3 -6 69 -15 146 -21 238 -19 240 -20 290 -59 82 -63 73 -66 -205 -72 -209 -4 -245 -7 -245 -20 0 -8 10 -16 22 -18 19 -3 21 -7 13 -21 -6 -13 -5 -24 6 -39 19 -27 36 -28 58 -3 14 15 15 24 6 40 -11 21 -10 21 168 21 l179 0 -5 -28 c-4 -34 18 -56 47 -47 27 8 37 42 18 63 -14 15 -13 19 4 41 28 34 24 50 -25 97 l-44 42 82 209 82 208 49 10 c57 11 78 22 70 36 -7 10 -42 10 -98 -1z m-382 -230 c0 -33 -2 -35 -37 -38 -37 -3 -38 -2 -38 31 0 42 7 49 45 45 27 -3 30 -6 30 -38z m85 0 c0 -39 -1 -40 -35 -40 -34 0 -35 1 -35 40 0 39 1 40 35 40 34 0 35 -1 35 -40z m90 0 l0 -40 -40 0 -40 0 0 40 0 40 40 0 40 0 0 -40z m80 33 c0 -4 -5 -22 -12 -40 -9 -24 -18 -33 -35 -33 -20 0 -23 5 -23 40 0 39 1 40 35 40 19 0 35 -3 35 -7z m-430 -38 c0 -32 -2 -35 -30 -35 -28 0 -30 3 -30 35 0 32 2 35 30 35 28 0 30 -3 30 -35z m90 0 c0 -34 -1 -35 -40 -35 -39 0 -40 1 -40 35 0 34 1 35 40 35 39 0 40 -1 40 -35z m-90 -80 c0 -30 -3 -35 -24 -35 -19 0 -25 6 -28 30 -5 36 -2 40 29 40 20 0 23 -5 23 -35z m90 0 c0 -34 -1 -35 -40 -35 -39 0 -40 1 -40 35 0 34 1 35 40 35 39 0 40 -1 40 -35z m88 -2 c3 -32 2 -33 -37 -33 -40 0 -41 1 -41 36 0 35 1 35 38 32 34 -3 37 -6 40 -35z m82 2 c0 -33 -2 -35 -35 -35 -33 0 -35 2 -35 35 0 33 2 35 35 35 33 0 35 -2 35 -35z m90 0 c0 -34 -1 -35 -40 -35 -39 0 -40 1 -40 35 0 34 1 35 40 35 39 0 40 -1 40 -35z m37 0 c-6 -19 -14 -35 -19 -35 -4 0 -8 16 -8 35 0 28 4 35 19 35 17 0 18 -3 8 -35z m-387 -75 c0 -30 -6 -36 -26 -22 -14 9 -24 38 -17 46 4 3 15 6 25 6 13 0 18 -8 18 -30z m88 -2 c3 -27 1 -28 -37 -28 -39 0 -41 1 -41 31 0 29 2 30 38 27 32 -3 37 -7 40 -30z m87 -3 c0 -28 -3 -30 -35 -30 -32 0 -35 3 -38 33 -3 33 -3 33 35 30 35 -3 38 -5 38 -33z m85 -6 c0 -38 -2 -41 -22 -35 -13 3 -29 6 -35 6 -8 0 -13 14 -13 35 0 33 2 35 35 35 34 0 35 -1 35 -41z m90 17 c0 -44 -10 -56 -46 -56 -32 0 -34 2 -34 33 0 19 3 37 7 40 3 4 21 7 40 7 28 0 33 -3 33 -24z m-332 -280 c4 -21 -14 -37 -35 -29 -14 5 -18 35 -6 47 12 12 38 1 41 -18z m410 -4 c3 -16 -2 -22 -17 -22 -24 0 -35 15 -27 36 9 23 40 13 44 -14z"></path><path d="M115 60 c4 -6 11 -8 16 -5 14 9 11 15 -7 15 -8 0 -12 -5 -9 -10z"></path><path d="M530 59 c0 -5 5 -7 10 -4 6 3 10 8 10 11 0 2 -4 4 -10 4 -5 0 -10 -5 -10 -11z"></path></g></svg>