<svg xmlns="http://www.w3.org/2000/svg" width="80.000000pt" height="80.000000pt" viewBox="0 0 80.000000 80.000000" preserveAspectRatio="xMidYMid meet"><g transform="translate(0.000000,80.000000) scale(0.100000,-0.100000)" fill="#68bbf2" stroke="none"><path d="M265 708 c-121 -11 -223 -23 -226 -26 -3 -4 0 -70 7 -147 7 -77 13 -149 13 -159 1 -18 7 -19 100 -12 94 6 100 5 106 -14 10 -31 -3 -59 -35 -75 -43 -22 -56 -19 -81 23 -13 20 -27 40 -33 44 -13 9 -85 -29 -93 -48 -5 -14 67 -143 93 -165 16 -13 47 -1 84 34 20 18 20 20 5 43 -8 13 -14 24 -13 25 17 6 248 23 248 18 0 -4 -7 -12 -15 -19 -8 -7 -15 -18 -15 -25 0 -14 133 -145 148 -145 5 0 58 52 118 116 87 94 106 119 98 132 -6 9 -41 43 -79 77 l-67 60 -77 -82 -77 -81 -43 8 c-48 9 -61 22 -61 62 0 25 3 27 58 33 166 18 152 13 151 53 0 21 -6 93 -12 162 l-12 125 -35 2 c-19 0 -134 -8 -255 -19z m268 -30 c3 -18 9 -77 13 -130 l6 -98 -23 0 c-13 0 -96 -7 -184 -14 -88 -8 -182 -16 -210 -18 l-50 -3 -11 125 c-7 69 -10 127 -8 129 3 4 366 38 425 40 34 1 37 -2 42 -31z m-78 -258 c3 -5 1 -10 -4 -10 -6 0 -11 5 -11 10 0 6 2 10 4 10 3 0 8 -4 11 -10z m236 -57 c32 -31 59 -61 59 -67 -1 -6 -41 -54 -90 -106 l-89 -95 -60 60 c-34 33 -60 63 -58 68 3 10 170 197 175 197 2 0 30 -25 63 -57z m-538 -96 c20 -35 37 -66 37 -70 0 -6 -63 -47 -73 -47 -5 0 -87 127 -87 136 0 7 64 44 75 44 6 0 28 -29 48 -63z"></path></g></svg>